<svg id="Layer_1" data-name="Layer 1" xmlns="http://www.w3.org/2000/svg" viewBox="0 0 57.12 57.12">
  <defs>
    <style>
      .cls-1 {
        fill: #818181;
      }

      .cls-2 {
        fill: #b4b4b4;
      }

      .cls-3 {
        fill: #010101;
      }

      .cls-4 {
        fill: #333;
      }
    </style>
  </defs>
  <title>mine</title>
  <g>
    <path class="cls-1" d="M58.25,26.27v8.36H50.62a21,21,0,0,0,0-8.36Z" transform="translate(-1.13 -1.75)"/>
    <path class="cls-2" d="M8.93,34.63H1.13V26.27H8.88a20.73,20.73,0,0,0-.39,4A21.17,21.17,0,0,0,8.93,34.63Z" transform="translate(-1.13 -1.75)"/>
    <path class="cls-2" d="M29.69,1.75V9.11H29.4a21.35,21.35,0,0,0-4,.38V1.75Z" transform="translate(-1.13 -1.75)"/>
    <path class="cls-1" d="M33.73,1.75v7.8a21.45,21.45,0,0,0-4-.44V1.75Z" transform="translate(-1.13 -1.75)"/>
    <path class="cls-2" d="M29.69,51.65v7.22h-4V51.24A21.22,21.22,0,0,0,29.69,51.65Z" transform="translate(-1.13 -1.75)"/>
    <path class="cls-1" d="M34,51.24v7.63H29.69V51.65A21.75,21.75,0,0,0,34,51.24Z" transform="translate(-1.13 -1.75)"/>
    <path class="cls-3" d="M48.66,34.32a19.4,19.4,0,0,1-2.79,6.81,19.78,19.78,0,0,1-2.51,3.08,19.37,19.37,0,0,1-9.9,5.31,19.06,19.06,0,0,1-3.77.38v-15h1.73A2.61,2.61,0,0,0,34,32.33V28.87a2.61,2.61,0,0,0-2.6-2.6H29.69V11.08a19.06,19.06,0,0,1,3.77.38,19.27,19.27,0,0,1,7,2.94,20.36,20.36,0,0,1,2.77,2.27l0,0,.06.05.19.21a19,19,0,0,1,2.32,2.88,19.44,19.44,0,0,1,2.79,14.47Z" transform="translate(-1.13 -1.75)"/>
    <path class="cls-4" d="M25.37,28.87v3.46A2.6,2.6,0,0,0,28,34.92h1.73v15a19.26,19.26,0,0,1-13.58-5.49,1.89,1.89,0,0,1-.2-.2l-.06-.06a.08.08,0,0,1,0,0,19.69,19.69,0,0,1-2.27-2.76,19.41,19.41,0,0,1,0-21.72,20.63,20.63,0,0,1,2.37-2.87A19.78,19.78,0,0,1,19,14.25a19.42,19.42,0,0,1,10.7-3.17V26.27H28A2.6,2.6,0,0,0,25.37,28.87Z" transform="translate(-1.13 -1.75)"/>
    <path class="cls-1" d="M53.09,13.32l-5.52,5.51A20.79,20.79,0,0,0,45,15.68l-.21-.22-.07-.06,0-.05a21.16,21.16,0,0,0-3-2.5L47.17,7.4Z" transform="translate(-1.13 -1.75)"/>
    <path class="cls-2" d="M18.22,48.19,12.7,53.7,6.79,47.79l5.45-5.45a20.53,20.53,0,0,0,2.5,3l0,.05.07.06a2.08,2.08,0,0,0,.21.21A20.94,20.94,0,0,0,18.22,48.19Z" transform="translate(-1.13 -1.75)"/>
    <path class="cls-2" d="M18.08,12.57a21.12,21.12,0,0,0-6,5.88L6.79,13.12,12.7,7.2Z" transform="translate(-1.13 -1.75)"/>
    <path class="cls-1" d="M53.09,47.59,47.17,53.5,41.7,48a21.73,21.73,0,0,0,3.13-2.59,20.31,20.31,0,0,0,2.74-3.37Z" transform="translate(-1.13 -1.75)"/>
    <path class="cls-2" d="M29.69,26.27v8.65H28a2.6,2.6,0,0,1-2.59-2.59V28.87A2.6,2.6,0,0,1,28,26.27Z" transform="translate(-1.13 -1.75)"/>
    <path class="cls-1" d="M34,28.87v3.46a2.61,2.61,0,0,1-2.6,2.59H29.69V26.27h1.73A2.61,2.61,0,0,1,34,28.87Z" transform="translate(-1.13 -1.75)"/>
  </g>
</svg>
