<?xml version="1.0" encoding="utf-8"?>
<!-- Generator: Adobe Illustrator 23.0.0, SVG Export Plug-In . SVG Version: 6.00 Build 0)  -->
<svg version="1.1" id="Layer_1" xmlns="http://www.w3.org/2000/svg" xmlns:xlink="http://www.w3.org/1999/xlink" x="0px" y="0px"
	 viewBox="0 0 40 40" style="enable-background:new 0 0 40 40;" xml:space="preserve">
<style type="text/css">
	.st0{fill:#C5C62F;}
	.st1{fill:#FFFF00;}
	.st2{fill:#1A1A1A;}
	.st3{fill:#4D4D4D;}
</style>
<g>
	<path class="st0" d="M39.52,20c0,10.65-8.53,19.31-19.13,19.51v-5.11c0.06,0,0.13,0,0.19,0c2.52,0,4.56-1.7,4.56-3.8
		c0-2.1-2.04-3.8-4.56-3.8c-0.06,0-0.13,0-0.19,0V0.48C31,0.69,39.52,9.35,39.52,20z"/>
	<path class="st1" d="M20.4,0.48v39.03c-0.14,0.01-0.26,0.01-0.4,0.01C9.22,39.52,0.48,30.78,0.48,20C0.48,9.22,9.22,0.48,20,0.48
		C20.14,0.48,20.26,0.48,20.4,0.48z"/>
	<path class="st2" d="M25.15,30.61c0,2.1-2.04,3.8-4.56,3.8c-0.06,0-0.13,0-0.19,0v-7.6c0.06,0,0.13,0,0.19,0
		C23.11,26.81,25.15,28.51,25.15,30.61z"/>
	<path class="st3" d="M20.4,26.81v7.6c-2.43-0.08-4.38-1.75-4.38-3.8S17.96,26.89,20.4,26.81z"/>
	<circle class="st3" cx="13.98" cy="15.13" r="2.54"/>
	<circle class="st2" cx="26.24" cy="15.13" r="2.54"/>
	<path class="st3" d="M6.68,9.91c4.84-2.2,11.75-1.66,11.75-1.69c0.01-0.04,0.02-0.09,0.02-0.13c0-1.12-2.87-1.61-6.26-1.09
		C8.88,7.5,6.35,8.75,6.51,9.8c0.01,0.05,0.03,0.1,0.05,0.15L6.68,9.91z"/>
	<path class="st2" d="M33.82,9.91c-4.84-2.2-11.75-1.66-11.75-1.69c-0.01-0.04-0.02-0.09-0.02-0.13c0-1.12,2.87-1.61,6.26-1.09
		c3.31,0.5,5.83,1.75,5.68,2.8c-0.01,0.05-0.03,0.1-0.05,0.15L33.82,9.91z"/>
</g>
</svg>
